<?xml version="1.0" encoding="UTF-8"?>
<svg version="1.1" xmlns="http://www.w3.org/2000/svg" width="489" height="489">
<path d="M0 0 C161.37 0 322.74 0 489 0 C489 161.37 489 322.74 489 489 C327.63 489 166.26 489 0 489 C0 327.63 0 166.26 0 0 Z " fill="#FEFEFE" transform="translate(0,0)"/>
<path d="M0 0 C10.03361991 3.7287101 16.40370571 20.94517501 21 30 C21.51046875 29.49210937 22.0209375 28.98421875 22.546875 28.4609375 C30.79051184 20.65579198 39.47868303 15.3840439 51 15 C49.84043496 18.90035514 48.31952912 22.46805085 46.5625 26.125 C41.22502486 37.8548495 40.40897777 49.30758633 40 62 C40.6084375 62.13535156 41.216875 62.27070312 41.84375 62.41015625 C64.24354618 67.91128266 83.34865404 80.34015275 100 96 C100.60199219 96.53753906 101.20398438 97.07507813 101.82421875 97.62890625 C107.87634475 103.25780666 112.39922987 110.18360107 117 117 C117.58136719 117.85851562 118.16273438 118.71703125 118.76171875 119.6015625 C126.2332515 131.32853516 130.12968075 144.51777927 133 158 C133.226875 159.04285156 133.45375 160.08570313 133.6875 161.16015625 C137.98960792 184.31386205 134.25908015 208.49247954 125 230 C124.34 230.66 123.68 231.32 123 232 C122.63648438 231.52949219 122.27296875 231.05898437 121.8984375 230.57421875 C118.13064044 225.90794701 114.9767823 222.55233088 108.75 221.6875 C97.29947692 221.11497385 88.47936893 226.82427736 80 234 C77.76343788 236.11924552 75.59545264 238.30103364 73.4375 240.5 C57.8696975 256.362304 40.755164 264.00910674 19.5625 269.9375 C3.86478685 274.34587475 -9.18441521 281.04560044 -22.6875 290.125 C-24.56838344 291.3822308 -26.45042484 292.63765295 -28.33447266 293.89013672 C-29.77289425 294.84866275 -31.20537932 295.81608645 -32.63671875 296.78515625 C-36.98216981 299.50769889 -40.18469594 300.72583048 -45.296875 299.76953125 C-60.14817546 295.54163213 -73.13540277 288.96457277 -85 279 C-85.76570312 278.3915625 -86.53140625 277.783125 -87.3203125 277.15625 C-111.75852373 256.72559109 -127.26254193 222.27674934 -130.60546875 191.015625 C-132.00380243 174.97974518 -130.56836939 160.47154433 -126 145 C-135.7973129 147.63773809 -144.14784313 150.27375762 -152 157 C-152.62003906 157.51046875 -153.24007812 158.0209375 -153.87890625 158.546875 C-161.5940306 165.51982855 -167.75496069 176.1367884 -171 186 C-171 186.99 -171 187.98 -171 189 C-169.57651429 190.11845306 -168.1526242 191.23639577 -166.7265625 192.3515625 C-161.21687895 197.6119391 -157.43552954 205.54289253 -156.69921875 213.078125 C-156.65384245 225.35997774 -159.29162532 234.43157728 -167.5234375 243.71875 C-174.46920631 250.35958262 -183.14368445 253.28476449 -192.625 253.5625 C-203.49718534 253.15160025 -212.25480347 249.17076664 -219.6875 241.1875 C-226.46734096 232.78049721 -228.77149316 224.52874087 -228.4453125 213.75390625 C-227.332197 204.37053787 -223.14590451 196.20419617 -216 190 C-205.79234583 182.52773028 -197.42379644 181.65910315 -185 182 C-184.58234375 180.67355469 -184.58234375 180.67355469 -184.15625 179.3203125 C-177.53049697 160.29365683 -162.89495797 147.63433882 -145.515625 138.6640625 C-142.37634877 137.17813842 -139.31890448 136.00788817 -136 135 C-142.26313987 130.82457342 -149.43973371 131.13328272 -156.671875 132.5078125 C-165.10531745 135.14006878 -171.93945511 140.57357552 -179.05273438 145.63232422 C-195.14160947 156.93245941 -212.22383646 164.14335925 -232 165 C-232.95326172 165.05679932 -232.95326172 165.05679932 -233.92578125 165.11474609 C-256.33782945 166.34657713 -277.93789715 160.08302962 -299 153 C-299.93328125 152.68708008 -300.8665625 152.37416016 -301.828125 152.05175781 C-304.51797595 151.13792228 -307.198103 150.2010498 -309.875 149.25 C-311.08905518 148.82775146 -311.08905518 148.82775146 -312.32763672 148.39697266 C-314.25420906 147.68860567 -316.13378724 146.85481854 -318 146 C-318.33 145.01 -318.66 144.02 -319 143 C-303.04714482 116.17401458 -274.06047136 95.04183827 -245 85 C-244.34 85 -243.68 85 -243 85 C-243.59482959 81.60796897 -244.739574 79.81264728 -247.04125977 77.27734375 C-247.9911528 76.23102783 -247.9911528 76.23102783 -248.9602356 75.16357422 C-252.35490689 71.56285284 -255.82838503 68.04911321 -259.33984375 64.5625 C-260.10680069 63.79695801 -260.87375763 63.03141602 -261.66395569 62.24267578 C-264.08610881 59.82606803 -266.51173612 57.41298274 -268.9375 55 C-270.59202893 53.35049314 -272.24632802 51.70075571 -273.90039062 50.05078125 C-277.93094202 46.03118629 -281.96434272 42.01446831 -286 38 C-283.4007047 36.0105176 -281.02914694 34.42030333 -278.015625 33.1328125 C-277.25354736 32.80692139 -276.49146973 32.48103027 -275.70629883 32.14526367 C-274.89572021 31.80857666 -274.0851416 31.47188965 -273.25 31.125 C-272.40526123 30.77348877 -271.56052246 30.42197754 -270.69018555 30.05981445 C-262.91120276 26.8776693 -255.11575548 24.17961286 -247 22 C-245.84628906 21.6803125 -244.69257813 21.360625 -243.50390625 21.03125 C-234.32099022 18.89614789 -225.27296765 18.69230091 -215.875 18.625 C-213.99917236 18.60409302 -213.99917236 18.60409302 -212.08544922 18.58276367 C-188.29901456 18.70302339 -167.66310755 27.31242387 -151 44 C-140.69713929 54.49563773 -133.7036719 68.5916949 -133.6875 83.4375 C-133.76564752 85.29294541 -133.85947811 87.14823373 -134 89 C-136.75532418 86.86860874 -139.00896776 84.98872625 -141.1875 82.25 C-147.97815245 73.88257067 -157.79019245 68.30060866 -167 63 C-167.91007813 62.46375 -168.82015625 61.9275 -169.7578125 61.375 C-181.27616313 55.07436376 -194.95050587 51.28977558 -208 50 C-207.42781738 50.18997559 -206.85563477 50.37995117 -206.26611328 50.57568359 C-175.91242941 60.7864956 -154.72276499 77.0358719 -132.375 99.5625 C-131.26456039 100.67797083 -130.15388462 101.79320661 -129.04296875 102.90820312 C-126.35925841 105.60277631 -123.67873064 108.30047673 -121 111 C-124.32775298 112.10925099 -125.01005147 111.91612839 -128.21875 110.890625 C-129.05776855 110.63168457 -129.89678711 110.37274414 -130.76123047 110.10595703 C-131.66502441 109.82349121 -132.56881836 109.54102539 -133.5 109.25 C-169.98555538 98.50872207 -206.38767957 100.23087876 -240.0793457 118.19628906 C-243.24787924 119.92972734 -246.1399769 121.80281155 -249 124 C-248.33718018 123.81824219 -247.67436035 123.63648438 -246.99145508 123.44921875 C-243.99518341 122.62954601 -240.9978399 121.81391841 -238 121 C-237.07493652 120.74863281 -236.14987305 120.49726563 -235.19677734 120.23828125 C-198.68629005 110.42775045 -158.4906532 106.51192241 -122.125 119.01171875 C-119.06952985 120.15076531 -119.06952985 120.15076531 -116 120 C-114.45068444 117.97848811 -114.45068444 117.97848811 -113 115.3125 C-96.57800385 88.47150628 -69.29398753 70.34399698 -39 63 C-38.34 63 -37.68 63 -37 63 C-36.40398877 45.80397233 -39.86906661 33.11332686 -48 18 C-48.33 17.34 -48.66 16.68 -49 16 C-35.78256499 15.00245773 -25.85979279 22.02971454 -16 30 C-15.67128906 29.07960938 -15.34257812 28.15921875 -15.00390625 27.2109375 C-11.52251934 17.82654639 -7.21477548 7.21477548 0 0 Z " fill="#343132" transform="translate(338,16)"/>
<path d="M0 0 C2.63702445 2.54912364 3.93505491 5.24874506 4.07315063 8.97251892 C4.04981659 9.72271805 4.02648254 10.47291718 4.00244141 11.24584961 C3.96843735 12.53011086 3.96843735 12.53011086 3.93374634 13.84031677 C3.90662567 14.76828568 3.879505 15.69625458 3.8515625 16.65234375 C3.81447479 18.64775149 3.77938911 20.64319725 3.74609375 22.63867188 C3.69126805 25.76106848 3.62679668 28.8813872 3.52685547 32.00268555 C3.06039279 47.17981823 5.08535672 59.03049395 11 73 C11.75755234 74.95772788 12.51121586 76.91697418 13.2578125 78.87890625 C13.87987951 80.44023522 14.50226399 82.00143774 15.125 83.5625 C17.77299895 90.37108939 20.06935496 97.18594519 21.9375 104.25 C22.13682129 104.99967041 22.33614258 105.74934082 22.54150391 106.52172852 C28.99499216 132.19488859 26.80817554 161.64886441 14 185 C11.57178386 188.89293168 8.91359604 192.45964203 6 196 C5.39671875 196.77730469 4.7934375 197.55460938 4.171875 198.35546875 C-3.95726367 208.27779978 -14.91110275 214.96542325 -27 219 C-28.14339844 219.391875 -29.28679687 219.78375 -30.46484375 220.1875 C-58.64232725 228.56223194 -89.76003264 221.69123495 -115.15234375 208.1875 C-137.72377007 195.6497115 -153.97850529 176.80818432 -161.23828125 151.8125 C-161.48964844 150.884375 -161.74101562 149.95625 -162 149 C-162.26586914 148.08093872 -162.26586914 148.08093872 -162.53710938 147.14331055 C-163.47949961 142.7797853 -163.18469871 138.25814525 -163.1875 133.8125 C-163.19974609 132.80896484 -163.21199219 131.80542969 -163.22460938 130.77148438 C-163.24302591 121.33608033 -161.78028999 113.63227401 -157.4375 105.25 C-157.08888916 104.56679688 -156.74027832 103.88359375 -156.38110352 103.1796875 C-152.81268783 96.3612808 -148.64372349 90.13513834 -144 84 C-143.43796875 83.25234375 -142.8759375 82.5046875 -142.296875 81.734375 C-127.92158257 64.00949986 -104.67538324 56.41773871 -84 49 C-70.26633037 44.04008872 -56.79826743 39.08239368 -44 32 C-43.01128906 31.46117187 -42.02257812 30.92234375 -41.00390625 30.3671875 C-31.56160351 24.82234589 -24.21134796 16.85912577 -17.1875 8.5625 C-12.31940628 2.91645426 -7.93468829 -1.37331143 0 0 Z " fill="#BB013B" transform="translate(444,251)"/>
<path d="M0 0 C1.25039063 0.25652344 2.50078125 0.51304688 3.7890625 0.77734375 C23.38394721 5.07579318 39.49477606 14.08463729 54 28 C55.36125 29.299375 55.36125 29.299375 56.75 30.625 C57.4925 31.40875 58.235 32.1925 59 33 C59.66708984 33.67482422 59.66708984 33.67482422 60.34765625 34.36328125 C68.5174513 43.14308766 73.98309617 54.48498589 77 66 C77.17805176 66.6494458 77.35610352 67.2988916 77.53955078 67.96801758 C79.0745094 74.05037563 79.23808646 79.81229844 79.125 86.0625 C79.11597656 87.02349609 79.10695313 87.98449219 79.09765625 88.97460938 C79.07435208 91.31667805 79.04164058 93.65819792 79 96 C78.00742187 96.20753906 77.01484375 96.41507812 75.9921875 96.62890625 C56.79107951 100.87809764 42.39107006 110.24474527 28.8125 124.1875 C16.75735762 136.48822465 5.09222402 140.79589154 -11.04296875 145.45703125 C-29.91564319 150.92905452 -47.60536429 158.15687403 -63.06860352 170.67456055 C-65 172 -65 172 -67.88671875 171.87890625 C-85.71248079 166.8465393 -97.50896117 150.75895876 -106.18066406 135.43212891 C-114.88421459 119.42585158 -119.16757083 103.35282834 -119.25 85.1875 C-119.270625 84.06279297 -119.29125 82.93808594 -119.3125 81.77929688 C-119.37103663 69.18660369 -115.12947262 59.35811794 -110 48 C-109.5978125 47.08734375 -109.195625 46.1746875 -108.78125 45.234375 C-100.04797492 26.46963529 -81.0125801 12.37115234 -62 5 C-41.69834669 -1.96112837 -21.19599021 -4.49067589 0 0 Z " fill="#FAF5F7" transform="translate(360,108)"/>
<path d="M0 0 C1.87582764 -0.02090698 1.87582764 -0.02090698 3.78955078 -0.04223633 C27.57598544 0.07802339 48.21189245 8.68742387 64.875 25.375 C75.17786071 35.87063773 82.1713281 49.9666949 82.1875 64.8125 C82.10935248 66.66794541 82.01552189 68.52323373 81.875 70.375 C79.11967582 68.24360874 76.86603224 66.36372625 74.6875 63.625 C67.89684755 55.25757067 58.08480755 49.67560866 48.875 44.375 C47.96492187 43.83875 47.05484375 43.3025 46.1171875 42.75 C34.59883687 36.44936376 20.92449413 32.66477558 7.875 31.375 C8.44718262 31.56497559 9.01936523 31.75495117 9.60888672 31.95068359 C39.96257059 42.1614956 61.15223501 58.4108719 83.5 80.9375 C84.61043961 82.05297083 85.72111538 83.16820661 86.83203125 84.28320312 C89.51574159 86.97777631 92.19626936 89.67547673 94.875 92.375 C91.54724702 93.48425099 90.86494853 93.29112839 87.65625 92.265625 C86.81723145 92.00668457 85.97821289 91.74774414 85.11376953 91.48095703 C84.20997559 91.19849121 83.30618164 90.91602539 82.375 90.625 C45.88944462 79.88372207 9.48732043 81.60587876 -24.2043457 99.57128906 C-27.37287924 101.30472734 -30.2649769 103.17781155 -33.125 105.375 C-32.46218018 105.19324219 -31.79936035 105.01148438 -31.11645508 104.82421875 C-28.12018341 104.00454601 -25.1228399 103.18891841 -22.125 102.375 C-21.19993652 102.12363281 -20.27487305 101.87226563 -19.32177734 101.61328125 C17.12931991 91.81870882 57.3547256 87.84431248 93.65234375 100.38671875 C96.95057144 101.57045997 96.95057144 101.57045997 100.875 101.375 C100.875 102.035 100.875 102.695 100.875 103.375 C101.72449219 103.47425781 102.57398438 103.57351562 103.44921875 103.67578125 C112.93661482 105.61220531 122.11084412 111.76755409 129.875 117.375 C129.08340993 121.34297047 127.4269573 124.93909284 125.8125 128.625 C125.53083984 129.2746875 125.24917969 129.924375 124.95898438 130.59375 C124.2670615 132.18869086 123.571401 133.78200934 122.875 135.375 C118.53197152 133.70758728 114.48671531 131.66116884 110.375 129.49609375 C101.48906037 125.5113052 88.63423496 126.14264808 79.4375 128.9375 C63.27071708 135.22704294 53.47210087 148.1522059 46.375 163.5 C45.21346296 166.15351134 44.875 167.40345696 44.875 170.375 C46.29848571 171.49345306 47.7223758 172.61139577 49.1484375 173.7265625 C54.65812105 178.9869391 58.43947046 186.91789253 59.17578125 194.453125 C59.22115755 206.73497774 56.58337468 215.80657728 48.3515625 225.09375 C41.40579369 231.73458262 32.73131555 234.65976449 23.25 234.9375 C12.37781466 234.52660025 3.62019653 230.54576664 -3.8125 222.5625 C-10.59234096 214.15549721 -12.89649316 205.90374087 -12.5703125 195.12890625 C-11.457197 185.74553787 -7.27090451 177.57919617 -0.125 171.375 C10.08265417 163.90273028 18.45120356 163.03410315 30.875 163.375 C31.29265625 162.04855469 31.29265625 162.04855469 31.71875 160.6953125 C38.34450303 141.66865683 52.98004203 129.00933882 70.359375 120.0390625 C73.49865123 118.55313842 76.55609552 117.38288817 79.875 116.375 C73.61186013 112.19957342 66.43526629 112.50828272 59.203125 113.8828125 C50.76968255 116.51506878 43.93554489 121.94857552 36.82226562 127.00732422 C20.73339053 138.30745941 3.65116354 145.51835925 -16.125 146.375 C-17.07826172 146.43179932 -17.07826172 146.43179932 -18.05078125 146.48974609 C-40.46282945 147.72157713 -62.06289715 141.45802962 -83.125 134.375 C-84.05828125 134.06208008 -84.9915625 133.74916016 -85.953125 133.42675781 C-88.64297595 132.51292228 -91.323103 131.5760498 -94 130.625 C-95.21405518 130.20275146 -95.21405518 130.20275146 -96.45263672 129.77197266 C-98.37920906 129.06360567 -100.25878724 128.22981854 -102.125 127.375 C-102.455 126.385 -102.785 125.395 -103.125 124.375 C-87.17214482 97.54901458 -58.18547136 76.41683827 -29.125 66.375 C-28.465 66.375 -27.805 66.375 -27.125 66.375 C-27.71982959 62.98296897 -28.864574 61.18764728 -31.16625977 58.65234375 C-31.79952179 57.9547998 -32.43278381 57.25725586 -33.0852356 56.53857422 C-36.47990689 52.93785284 -39.95338503 49.42411321 -43.46484375 45.9375 C-44.23180069 45.17195801 -44.99875763 44.40641602 -45.78895569 43.61767578 C-48.21110881 41.20106803 -50.63673612 38.78798274 -53.0625 36.375 C-54.71702893 34.72549314 -56.37132802 33.07575571 -58.02539062 31.42578125 C-62.05594202 27.40618629 -66.08934272 23.38946831 -70.125 19.375 C-67.5257047 17.3855176 -65.15414694 15.79530333 -62.140625 14.5078125 C-60.99750854 14.01897583 -60.99750854 14.01897583 -59.83129883 13.52026367 C-58.61543091 13.01523315 -58.61543091 13.01523315 -57.375 12.5 C-56.53026123 12.14848877 -55.68552246 11.79697754 -54.81518555 11.43481445 C-47.03620276 8.2526693 -39.24075548 5.55461286 -31.125 3.375 C-29.97128906 3.0553125 -28.81757812 2.735625 -27.62890625 2.40625 C-18.44599022 0.27114789 -9.39796765 0.06730091 0 0 Z " fill="#1B7937" transform="translate(122.125,34.625)"/>
<path d="M0 0 C2.63702445 2.54912364 3.93505491 5.24874506 4.07315063 8.97251892 C4.04981659 9.72271805 4.02648254 10.47291718 4.00244141 11.24584961 C3.96843735 12.53011086 3.96843735 12.53011086 3.93374634 13.84031677 C3.90662567 14.76828568 3.879505 15.69625458 3.8515625 16.65234375 C3.81447479 18.64775149 3.77938911 20.64319725 3.74609375 22.63867188 C3.69126805 25.76106848 3.62679668 28.8813872 3.52685547 32.00268555 C3.06039279 47.17981823 5.08535672 59.03049395 11 73 C11.75755234 74.95772788 12.51121586 76.91697418 13.2578125 78.87890625 C13.87987951 80.44023522 14.50226399 82.00143774 15.125 83.5625 C17.77299895 90.37108939 20.06935496 97.18594519 21.9375 104.25 C22.13682129 104.99967041 22.33614258 105.74934082 22.54150391 106.52172852 C28.99499216 132.19488859 26.80817554 161.64886441 14 185 C11.57178386 188.89293168 8.91359604 192.45964203 6 196 C5.39671875 196.77730469 4.7934375 197.55460938 4.171875 198.35546875 C-3.95726367 208.27779978 -14.91110275 214.96542325 -27 219 C-28.14339844 219.391875 -29.28679687 219.78375 -30.46484375 220.1875 C-58.64232725 228.56223194 -89.76003264 221.69123495 -115.15234375 208.1875 C-137.72377007 195.6497115 -153.97850529 176.80818432 -161.23828125 151.8125 C-161.48964844 150.884375 -161.74101562 149.95625 -162 149 C-162.26586914 148.08093872 -162.26586914 148.08093872 -162.53710938 147.14331055 C-163.47949961 142.7797853 -163.18469871 138.25814525 -163.1875 133.8125 C-163.19974609 132.80896484 -163.21199219 131.80542969 -163.22460938 130.77148438 C-163.24302591 121.33608033 -161.78028999 113.63227401 -157.4375 105.25 C-157.08888916 104.56679688 -156.74027832 103.88359375 -156.38110352 103.1796875 C-152.81268783 96.3612808 -148.64372349 90.13513834 -144 84 C-143.43796875 83.25234375 -142.8759375 82.5046875 -142.296875 81.734375 C-127.92158257 64.00949986 -104.67538324 56.41773871 -84 49 C-70.26633037 44.04008872 -56.79826743 39.08239368 -44 32 C-43.01128906 31.46117187 -42.02257812 30.92234375 -41.00390625 30.3671875 C-31.56160351 24.82234589 -24.21134796 16.85912577 -17.1875 8.5625 C-12.31940628 2.91645426 -7.93468829 -1.37331143 0 0 Z M-51.75 57.5 C-52.65395508 57.76699707 -53.55791016 58.03399414 -54.48925781 58.30908203 C-82.71088178 66.85561672 -117.94873831 79.13899596 -132.9765625 106.5 C-139.95746701 119.83662711 -142.53075961 133.18845477 -138.4375 147.875 C-131.0111775 168.72582855 -111.88852368 185.2659322 -92.37890625 194.828125 C-78.52636758 201.07921583 -60.80727991 204.36589078 -45.9375 199.4375 C-29.74028241 192.27767893 -19.18264283 179.32521911 -12.4609375 163.33984375 C-8.09190437 151.59966409 -6.67232471 141.13072228 -6.75 128.625 C-6.74226562 127.3875 -6.73453125 126.15 -6.7265625 124.875 C-6.74304538 117.04563351 -7.44029045 109.66904633 -9 102 C-9.13535156 101.29278809 -9.27070313 100.58557617 -9.41015625 99.85693359 C-12.37097842 85.04137624 -18.32613104 66.29341145 -30 56 C-37.37288706 53.54237098 -44.52070938 55.31411186 -51.75 57.5 Z " fill="#533176" transform="translate(444,251)"/>
<path d="M0 0 C2.13745788 1.70457604 2.91841682 2.50310611 3.36749268 5.23826599 C3.36384705 6.11281937 3.36020142 6.98737274 3.35644531 7.88842773 C3.35944641 8.88474716 3.36244751 9.88106659 3.36553955 10.90757751 C3.34701935 12.52920555 3.34701935 12.52920555 3.328125 14.18359375 C3.32625183 15.30830582 3.32437866 16.43301788 3.32244873 17.59181213 C3.31571331 19.98514752 3.30176958 22.37847162 3.28125 24.77172852 C3.25062483 28.36420394 3.2403267 31.95623619 3.234375 35.54882812 C3.19970124 46.16728838 3.06879393 56.78411419 2.63671875 67.39453125 C2.61051453 68.19829697 2.5843103 69.00206268 2.55731201 69.83018494 C2.23960074 76.37284624 0.78861861 80.52719519 -4 85 C-10.68686992 90.87401647 -17.85362222 95.58742686 -25.5625 100 C-26.60519043 100.60231445 -27.64788086 101.20462891 -28.72216797 101.82519531 C-58.11501256 118.60434412 -58.11501256 118.60434412 -74 117 C-79.00130062 115.39923769 -81.99460191 112.1981101 -85 108 C-92.45850873 92.37638698 -92.69641744 72.24250099 -87.33569336 55.9140625 C-83.04975778 44.14113773 -77.52635914 33.26846818 -69 24 C-68.26265625 23.17113281 -67.5253125 22.34226563 -66.765625 21.48828125 C-53.19492416 7.00843215 -19.66877656 -13.61684531 0 0 Z " fill="#BD043D" transform="translate(337,116)"/>
<path d="M0 0 C15.23157657 3.06402073 28.14743248 10.51269628 39.51831055 21.01879883 C40.29432617 21.70329102 41.0703418 22.3877832 41.86987305 23.09301758 C54.91956452 35.22340089 64.52969632 53.14769553 65.51831055 71.01879883 C65.59326384 76.02068161 65.57762596 81.0165326 65.51831055 86.01879883 C64.68428711 86.27274414 63.85026367 86.52668945 62.9909668 86.78833008 C60.64795723 87.50492063 58.30690452 88.22793119 55.9675293 88.95629883 C53.99801108 89.56299074 52.02381502 90.15585586 50.0378418 90.70629883 C44.3621325 92.36042175 39.99466441 95.15794118 35.1940918 98.59301758 C31.79594139 100.40371086 30.35174417 100.57663259 26.51831055 100.01879883 C22.75287782 98.73256584 19.14570061 97.14973896 15.51831055 95.51879883 C14.49463379 95.064646 13.47095703 94.61049316 12.41625977 94.14257812 C-17.88045736 80.49590373 -17.88045736 80.49590373 -22.48168945 69.01879883 C-22.86834404 65.70184007 -22.80801894 62.42420973 -22.73950195 59.08911133 C-22.73288544 58.13994843 -22.72626892 57.19078552 -22.7194519 56.21286011 C-22.6961325 53.1895036 -22.65247198 50.16689144 -22.60668945 47.14379883 C-22.57146982 44.127937 -22.54063993 41.11212238 -22.51535034 38.09616089 C-22.49855903 36.22395941 -22.47557585 34.35179952 -22.44534302 32.47976685 C-22.38563702 27.21226817 -22.73399434 22.23318415 -23.48168945 17.01879883 C-23.63701543 14.60488037 -23.74358456 12.18718003 -23.79418945 9.76879883 C-23.83157227 8.58801758 -23.86895508 7.40723633 -23.9074707 6.19067383 C-23.48168945 3.01879883 -23.48168945 3.01879883 -21.8137207 0.62817383 C-15.80435659 -3.51899202 -6.83345984 -1.2025509 0 0 Z " fill="#BD043D" transform="translate(366.481689453125,113.981201171875)"/>
<path d="M0 0 C0.78317389 11.32232672 1.21339462 22.60643679 1.24023438 33.95629883 C1.24998147 36.43279115 1.28118848 38.90846442 1.3125 41.38476562 C1.48897566 67.88315146 -4.8655883 92.71411499 -23.46728516 112.45849609 C-33.86884197 122.91969866 -47.34013531 130.68528452 -62 133 C-62.01417969 131.98164063 -62.02835938 130.96328125 -62.04296875 129.9140625 C-62.34529823 119.32114591 -64.39223903 110.04877967 -67.43066406 99.93457031 C-73.20323607 80.31970727 -70.42537597 59.03532501 -61 41 C-49.02421773 21.20377512 -24.78899719 0 0 0 Z " fill="#1B7938" transform="translate(263,328)"/>
<path d="M0 0 C1.44889919 0.31745544 2.90929847 0.58489106 4.375 0.8125 C8.9888497 1.79480348 10.97692135 3.26092903 14 7 C14.56589844 7.65226563 15.13179687 8.30453125 15.71484375 8.9765625 C22.686471 17.31893253 25.71470659 24.88128995 25.31640625 35.828125 C24.31322026 45.88475492 20.20535782 54.24146277 12.875 61.25 C3.61858325 68.48536506 -6.4781701 70.356255 -18 69 C-27.39669286 66.73008364 -35.21528317 61.10364655 -40.6796875 53.17578125 C-46.00243169 44.40427677 -47.21328941 36.22781686 -46 26 C-43.30183924 15.76847887 -37.94426625 8.29189381 -29.0625 2.625 C-20.95476802 -1.854948 -8.25222026 -5.50148018 0 0 Z " fill="#533276" transform="translate(156,200)"/>
<path d="M0 0 C7.40669364 6.40890072 11.68381072 14.72206723 12.46484375 24.5 C12.6691218 36.0246864 9.54551444 45.19102581 1.6328125 53.7109375 C-6.67398425 61.40098832 -16.36575596 63.34632609 -27.38671875 63.234375 C-36.47436705 62.48236681 -44.28444329 57.74078313 -50.42578125 51.14453125 C-58.08977368 41.64118064 -60.01653665 32.04828386 -58.73828125 19.95703125 C-56.2191728 9.4418763 -49.69101653 1.70979288 -40.73828125 -4.04296875 C-27.5382064 -11.69901216 -11.78717454 -8.78949436 0 0 Z " fill="#523276" transform="translate(88.73828125,207.04296875)"/>
<path d="M0 0 C7.81501511 5.34229548 12.77571072 13.0002039 15.62109375 22.01953125 C17.57547949 32.4966507 15.43984564 41.72103753 9.83203125 50.58984375 C4.32530453 57.98693935 -2.96769984 63.51061951 -11.9375 65.80078125 C-24.28002726 66.8083345 -34.38562041 64.80776902 -44.1875 56.86328125 C-48.24428172 53.157184 -50.73493051 49.01988719 -53 44.05078125 C-53.36738281 43.29539062 -53.73476562 42.54 -54.11328125 41.76171875 C-55.25783112 38.26252225 -55.3424581 34.94368681 -55.3125 31.30078125 C-55.30686035 30.58921875 -55.3012207 29.87765625 -55.29541016 29.14453125 C-55.0292832 17.59304043 -50.50464023 10.19075237 -42.3125 2.30078125 C-29.82870745 -7.97307439 -13.5046913 -7.65777382 0 0 Z " fill="#533276" transform="translate(167,348.94921875)"/>
<path d="M0 0 C9.21682383 6.56083071 13.15760822 14.1017309 16.671875 24.64453125 C17.54864596 36.12411379 14.75410487 45.86266546 7.484375 54.83203125 C3.77827775 58.88881297 -0.35901906 61.37946176 -5.328125 63.64453125 C-6.46121094 64.19560547 -6.46121094 64.19560547 -7.6171875 64.7578125 C-11.116384 65.90236237 -14.43521944 65.98698935 -18.078125 65.95703125 C-18.7896875 65.9513916 -19.50125 65.94575195 -20.234375 65.93994141 C-31.78586582 65.67381445 -39.18815388 61.14917148 -47.078125 52.95703125 C-53.78955537 44.80195224 -55.16611843 35.68935062 -54.7109375 25.38671875 C-54.20190532 20.41066947 -53.01727788 16.82952542 -50.328125 12.64453125 C-49.709375 11.61972656 -49.709375 11.61972656 -49.078125 10.57421875 C-43.81114156 2.70366963 -35.99060479 -2.63253765 -26.8203125 -4.91796875 C-17.26069413 -6.59614627 -8.43905376 -4.9133417 0 0 Z " fill="#533276" transform="translate(126.328125,276.35546875)"/>
<path d="M0 0 C9.21682383 6.56083071 13.15760822 14.1017309 16.671875 24.64453125 C17.83368416 34.5103861 15.31442641 44.57247625 9.421875 52.58203125 C3.06619018 59.96763514 -4.18418818 65.18325549 -14.07421875 65.92578125 C-27.1381769 66.37030157 -35.63862479 63.8004743 -45.2421875 54.86328125 C-52.82946017 46.98543218 -54.93999553 38.16278966 -54.80102539 27.42578125 C-54.54845107 21.70897721 -53.40496904 17.43286979 -50.328125 12.64453125 C-49.709375 11.61972656 -49.709375 11.61972656 -49.078125 10.57421875 C-43.81114156 2.70366963 -35.99060479 -2.63253765 -26.8203125 -4.91796875 C-17.26069413 -6.59614627 -8.43905376 -4.9133417 0 0 Z " fill="#523276" transform="translate(206.328125,276.35546875)"/>
<path d="M0 0 C10.03361991 3.7287101 16.40370571 20.94517501 21 30 C21.51046875 29.49210937 22.0209375 28.98421875 22.546875 28.4609375 C30.79051184 20.65579198 39.47868303 15.3840439 51 15 C49.84043496 18.90035514 48.31952912 22.46805085 46.5625 26.125 C41.22502486 37.8548495 40.40897777 49.30758633 40 62 C37.93728361 61.6889315 35.87483534 61.37608484 33.8125 61.0625 C32.66394531 60.88847656 31.51539063 60.71445313 30.33203125 60.53515625 C28.47492646 60.23688737 26.61980739 59.91084907 24.78857422 59.48144531 C21.20841833 58.863334 17.67326092 58.79852334 14.05078125 58.76171875 C13.27929245 58.753647 12.50780365 58.74557526 11.7129364 58.73725891 C10.07646906 58.72345518 8.43997337 58.7127165 6.8034668 58.70483398 C5.16600823 58.69343934 3.52858297 58.67319235 1.89135742 58.64331055 C-8.98763876 58.4453095 -18.79780912 59.43304163 -29.35083008 62.13598633 C-33 63 -33 63 -37 63 C-36.96519531 61.99582031 -36.93039062 60.99164063 -36.89453125 59.95703125 C-36.50012314 43.92828583 -40.47274504 31.99124295 -48 18 C-48.33 17.34 -48.66 16.68 -49 16 C-35.78256499 15.00245773 -25.85979279 22.02971454 -16 30 C-15.67128906 29.07960938 -15.34257812 28.15921875 -15.00390625 27.2109375 C-11.52251934 17.82654639 -7.21477548 7.21477548 0 0 Z " fill="#B9023B" transform="translate(338,16)"/>
<path d="M0 0 C2.58534574 1.25097374 3.44824686 2.47429828 4.9375 4.9375 C5.46166992 8.00268555 5.46166992 8.00268555 5.66796875 11.57421875 C5.74853516 12.87423828 5.82910156 14.17425781 5.91210938 15.51367188 C5.98315463 16.88411035 6.05411761 18.25455309 6.125 19.625 C6.20648998 20.97598391 6.28916121 22.32689711 6.37304688 23.67773438 C6.77009715 30.44093531 7.03459622 37.16317121 6.9375 43.9375 C5.37515625 44.43056641 5.37515625 44.43056641 3.78125 44.93359375 C-10.69886769 49.6722936 -23.19771077 56.56884813 -35.51171875 65.50390625 C-38.42839028 67.14313818 -39.77900094 67.54440267 -43.0625 66.9375 C-50.27225287 62.13872558 -58.77935661 54.00809564 -60.62890625 45.2578125 C-60.80809607 41.36187906 -60.43714888 38.68679776 -58.6875 35.1875 C-52.75604206 30.10339319 -45.46885818 26.57438807 -38.67944336 22.75170898 C-20.75536189 12.8838989 -20.75536189 12.8838989 -3.95336914 1.27758789 C-2.0625 -0.0625 -2.0625 -0.0625 0 0 Z " fill="#BD053E" transform="translate(333.0625,207.0625)"/>
<path d="M0 0 C0.78601543 23.26023442 -2.71794567 44.98591412 -19.125 62.625 C-24.45960389 67.78604657 -30.59098889 71.34595634 -37 75 C-37.76441406 75.45761719 -38.52882812 75.91523437 -39.31640625 76.38671875 C-43.70855263 79 -43.70855263 79 -46 79 C-46.10059445 75.10815548 -46.17225841 71.21683746 -46.21972656 67.32397461 C-46.24919327 65.36610224 -46.30007758 63.40858901 -46.3515625 61.45117188 C-46.53269754 43.65465452 -40.11581283 28.88956412 -28 16 C-20.86536044 9.20149088 -10.27723265 0 0 0 Z " fill="#1B7938" transform="translate(262,29)"/>
<path d="M0 0 C6.12919799 0.26267991 11.30291077 2.50961351 16.875 4.9375 C17.78596436 5.32993896 18.69692871 5.72237793 19.63549805 6.12670898 C28.51920765 10.05415426 36.78377975 14.84197968 45 20 C41.47933221 28.50161255 32.46552073 35.5723497 24.23828125 39.20703125 C21.51110432 40.17320388 18.88569846 40.7721817 16 41 C15.67 38.03 15.34 35.06 15 32 C13.02 32 11.04 32 9 32 C9.33 35.63 9.66 39.26 10 43 C6.27034861 45.03435531 4.33094958 46 0 46 C-2.19266746 20.90678705 -2.19266746 20.90678705 -2.25 9.5 C-2.25902344 8.76023926 -2.26804687 8.02047852 -2.27734375 7.25830078 C-2.24855902 2.24855902 -2.24855902 2.24855902 0 0 Z " fill="#BD063E" transform="translate(344,202)"/>
<path d="M0 0 C1.13172492 3.39517477 0.90627015 3.95300653 -0.30761719 7.16088867 C-0.61834167 7.99573288 -0.92906616 8.83057709 -1.24920654 9.6907196 C-1.76780243 11.04070793 -1.76780243 11.04070793 -2.296875 12.41796875 C-2.64631165 13.34918045 -2.99574829 14.28039215 -3.35577393 15.23982239 C-4.47851704 18.22573269 -5.61405 21.20659229 -6.75 24.1875 C-7.50084985 26.17741391 -8.25085991 28.16764491 -9 30.15820312 C-10.3864071 33.83817472 -11.77753201 37.51627923 -13.17480469 41.19213867 C-14.79585598 45.45674316 -16.40135855 49.72694657 -18 54 C-18.33 54 -18.66 54 -19 54 C-19.21568902 47.32038055 -18.56091346 41.42767761 -17 34.9375 C-16.78142334 34.02718018 -16.56284668 33.11686035 -16.33764648 32.17895508 C-13.26573676 20.22519667 -7.92322114 9.50786536 0 0 Z " fill="#F0F5F2" transform="translate(237,370)"/>
<path d="M0 0 C3.54255142 1.2960554 4.68581703 2.6706815 6.5625 5.9375 C6.88470035 8.69921731 6.75208725 11.14108807 6.5625 13.9375 C3.5625 14.9375 3.5625 14.9375 0.625 13.8125 C-2.65118416 11.80667297 -4.47414347 10.23593896 -6.4375 6.9375 C-6.375 4.25 -6.375 4.25 -5.4375 1.9375 C-2.4375 -0.0625 -2.4375 -0.0625 0 0 Z " fill="#FAEDF1" transform="translate(381.4375,363.0625)"/>
<path d="M0 0 C6.11111111 6.11111111 6.11111111 6.11111111 6.23046875 12.08984375 C6 14 6 14 4 16 C0.5 16.25 0.5 16.25 -3 16 C-5 14 -5 14 -5.4375 10.25 C-5.35799743 5.409177 -3.3405995 3.3405995 0 0 Z " fill="#FBF0F3" transform="translate(380,422)"/>
<path d="M0 0 C0.25218023 4.28706385 0.39788506 7.93897316 -1.125 12 C-3 14 -3 14 -6 15 C-9 15 -9 15 -10.9375 14 C-12.68011215 10.7197889 -11.9797175 8.49024361 -11 5 C-7.59519889 1.59519889 -4.87914228 0 0 0 Z " fill="#FBF3F5" transform="translate(362,418)"/>
<path d="M0 0 C0.29557392 5.02475668 0.0282379 7.92352591 -3 12 C-5 14 -5 14 -7.4375 14.3125 C-10 14 -10 14 -11.875 12.875 C-13 11 -13 11 -12.9375 8.0625 C-11.87457567 4.59028052 -10.85553343 3.20284008 -8 1 C-5.11727109 -0.08102334 -3.18438926 0 0 0 Z " fill="#FBF2F5" transform="translate(363,380)"/>
<path d="M0 0 C4.27071809 1.10449606 5.92331475 2.4989915 8.625 5.9375 C8.625 6.9275 8.625 7.9175 8.625 8.9375 C5.66544139 10.62963943 3.46800083 11.23271319 0.0625 11.25 C-1.08412109 11.27513672 -1.08412109 11.27513672 -2.25390625 11.30078125 C-4.90818656 10.84618075 -5.80409229 10.09939228 -7.375 7.9375 C-7.25 4.875 -7.25 4.875 -6.375 1.9375 C-3.375 -0.0625 -3.375 -0.0625 0 0 Z " fill="#FBF1F4" transform="translate(338.375,356.0625)"/>
<path d="M0 0 C2.85449117 2.62304594 3.90148695 4.19547679 4.375 8.0625 C4.01777222 10.86078426 3.46607416 12.61762948 2 15 C-1.8496075 14.78002243 -2.99046001 14.00932799 -5.8125 11.25 C-8 8 -8 8 -8.5 5.3125 C-7.46545645 0.52773609 -4.75243442 -0.92730428 0 0 Z " fill="#FBF2F5" transform="translate(358,340)"/>
<path d="M0 0 C4.25559347 0.69107928 7.96398765 1.33399206 11.625 3.6875 C13.60736089 7.02147059 12.84768092 9.32671603 12 13 C8.75 13.8125 8.75 13.8125 5 14 C1.53545352 10.6266258 0.0206254 8.19627314 -0.0625 3.375 C-0.041875 2.26125 -0.02125 1.1475 0 0 Z " fill="#FBF2F5" transform="translate(396,411)"/>
<path d="M0 0 C4.15778498 0.07573379 6.22144865 1.40894865 9.1875 4.375 C8.17699988 7.03904576 7.21516415 8.35207828 5 10.1875 C1.29393862 11.75228147 -0.96176935 11.39217414 -4.8125 10.375 C-6.8125 7.375 -6.8125 7.375 -6.5625 4.8125 C-5.29923405 0.70688566 -4.29409112 0.42236962 0 0 Z " fill="#FBF2F5" transform="translate(328.8125,380.625)"/>
<path d="M0 0 C2 2 2 2 2.4375 4.375 C2 7 2 7 -0.0625 9.375 C-3.91058019 11.50372521 -5.80903136 11.14299145 -10 10 C-12.4375 8.4375 -12.4375 8.4375 -14 7 C-11.10588574 0.00589055 -7.0051903 -0.5649347 0 0 Z " fill="#FBF1F4" transform="translate(417,363)"/>
<path d="M0 0 C3.42458592 0.04369488 4.71450152 0.29293961 7.8125 2 C9.75 4.3125 9.75 4.3125 10.25 6.875 C9.75 9.3125 9.75 9.3125 8.5625 11.125 C6.01452085 12.79436565 4.74696745 12.88335094 1.75 12.3125 C-2.28958935 9.11840609 -3.981152 6.27254219 -5.25 1.3125 C-3.69014791 -0.24735209 -2.16093902 0.06797656 0 0 Z " fill="#FCF4F6" transform="translate(408.25,388.6875)"/>
<path d="M0 0 C3.0625 0.3125 3.0625 0.3125 4.9375 1.4375 C6.63383822 4.26473037 6.50851397 6.06296964 6.0625 9.3125 C4.25 12.6875 4.25 12.6875 2.0625 15.3125 C-0.9375 15.3125 -0.9375 15.3125 -2.5625 14 C-5.46426589 10.43874186 -5.17736841 6.71008759 -4.9375 2.3125 C-2.9375 0.3125 -2.9375 0.3125 0 0 Z " fill="#FCF4F6" transform="translate(379.9375,330.6875)"/>
<path d="M0 0 C-0.48219178 7.23287671 -0.48219178 7.23287671 -2.6875 10.5 C-5.70643339 12.45822707 -7.46557746 12.52640336 -11 12 C-12.9375 10.8125 -12.9375 10.8125 -14 9 C-14 5.5619637 -13.22809141 4.25573886 -10.9375 1.6875 C-6.9791531 -0.58644396 -4.51277506 -0.30595085 0 0 Z " fill="#FCF6F8" transform="translate(346,404)"/>
<path d="M0 0 C2 3 2 3 1.9375 5.4375 C0.65374611 8.9464273 -0.78931907 10.11546989 -4 12 C-7.8125 12.25 -7.8125 12.25 -11 12 C-11.32470459 7.86001651 -11.4304413 5.66000999 -9.125 2.125 C-5.8569451 -1.1430549 -4.38148514 -1.31444554 0 0 Z " fill="#FCF5F7" transform="translate(408,339)"/>
<path d="M0 0 C3 1 3 1 5 4 C5.30078125 6.15625 5.30078125 6.15625 5.3125 8.5 C5.32925781 9.2734375 5.34601563 10.046875 5.36328125 10.84375 C4.91178236 13.52361437 4.18926418 14.42311741 2 16 C-1.125 15.8125 -1.125 15.8125 -4 15 C-5.60646029 11.78707942 -5.62441428 8.4741348 -5 5 C-2.5 2 -2.5 2 0 0 Z " fill="#FCF6F8" transform="translate(381,390)"/>
<path d="M0 0 C0.66 0.66 1.32 1.32 2 2 C1.76831334 4.39409552 1.22046965 5.71809918 -0.26171875 7.61328125 C-2.50898859 9.40604708 -3.78514229 9.34250351 -6.625 9.25 C-7.81996094 9.22679687 -7.81996094 9.22679687 -9.0390625 9.203125 C-11 9 -11 9 -12 8 C-12.3125 5.625 -12.3125 5.625 -12 3 C-8.7080896 -0.97772507 -4.76284298 -0.38410024 0 0 Z " fill="#F9F1F4" transform="translate(308,198)"/>
<path d="M0 0 C2.375 1.5 2.375 1.5 4 3 C3.8125 5.375 3.8125 5.375 3 8 C-0.0098953 9.89193419 -1.70429745 10.02843294 -5.25 9.6875 C-8 9 -8 9 -9 8 C-9.25 5.0625 -9.25 5.0625 -9 2 C-5.51131349 -0.32579101 -4.10281481 -0.41865457 0 0 Z " fill="#F8EDF0" transform="translate(325,183)"/>
<path d="M0 0 C0.69222656 0.08765625 1.38445312 0.1753125 2.09765625 0.265625 C3.9375 0.75 3.9375 0.75 5.9375 2.75 C5.8125 4.75 5.8125 4.75 4.9375 6.75 C1.76968212 9.09653177 -1.22031885 9.07699414 -5.0625 8.75 C-6.0525 8.09 -7.0425 7.43 -8.0625 6.75 C-7.75 4.375 -7.75 4.375 -7.0625 1.75 C-3.88217735 -0.3702151 -3.51682601 -0.4995865 0 0 Z " fill="#F8EEF1" transform="translate(287.0625,184.25)"/>
<path d="M0 0 C3.92683725 0.37758051 5.42346736 1.65223399 8.25 4.3125 C7.375 9.1875 7.375 9.1875 6.25 10.3125 C2.64722105 10.71280877 0.8729538 10.75512507 -2.125 8.625 C-4.03250465 5.91047415 -4.18903308 4.5613448 -3.75 1.3125 C-2.75 0.3125 -2.75 0.3125 0 0 Z " fill="#FAF4F6" transform="translate(301.75,143.6875)"/>
<path d="M0 0 C3.75 0.375 3.75 0.375 6.75 2.625 C8.75 5.375 8.75 5.375 8.5625 7.6875 C8.294375 8.244375 8.02625 8.80125 7.75 9.375 C0.51190476 9.73690476 0.51190476 9.73690476 -2.75 8.1875 C-4.25 6.375 -4.25 6.375 -4.5625 3.75 C-4.0833397 0.10838174 -3.79223675 0.43756578 0 0 Z " fill="#F9F2F4" transform="translate(284.25,151.625)"/>
<path d="M0 0 C7.28850325 -0.48590022 7.28850325 -0.48590022 10.5625 1.75 C12 4 12 4 11.8125 6.1875 C11 8 11 8 10 9 C5.42928825 8.65504062 2.41674829 8.14340842 -1 5 C-0.67 3.35 -0.34 1.7 0 0 Z " fill="#F9F1F3" transform="translate(301,165)"/>
<path d="M0 0 C0.79148437 -0.01417969 1.58296875 -0.02835938 2.3984375 -0.04296875 C4.625 0.1875 4.625 0.1875 7.625 2.1875 C7.295 3.8375 6.965 5.4875 6.625 7.1875 C5.18965159 7.4101746 3.75154475 7.61511906 2.3125 7.8125 C1.51199219 7.92851562 0.71148437 8.04453125 -0.11328125 8.1640625 C-2.375 8.1875 -2.375 8.1875 -5.375 6.1875 C-5.625 3.625 -5.625 3.625 -5.375 1.1875 C-3.79539731 -0.39210269 -2.17963184 0.01763456 0 0 Z " fill="#F7EBEF" transform="translate(266.375,173.8125)"/>
<path d="M0 0 C1.20462891 -0.02126953 1.20462891 -0.02126953 2.43359375 -0.04296875 C4.5625 0.1875 4.5625 0.1875 6.5625 2.1875 C6.3125 4.75 6.3125 4.75 5.5625 7.1875 C2.51266004 8.71241998 -0.0798369 8.42312548 -3.4375 8.1875 C-5.4375 6.9375 -5.4375 6.9375 -6.4375 5.1875 C-5.87597459 0.41453399 -4.52794616 0.03622357 0 0 Z " fill="#F9F1F4" transform="translate(263.4375,190.8125)"/>
<path d="M0 0 C0.33 1.32 0.66 2.64 1 4 C-1.21368294 6.21368294 -2.93016625 7.86552921 -6.11328125 8.265625 C-8.07746787 8.25166986 -10.0402625 8.13286356 -12 8 C-12.33 6.68 -12.66 5.36 -13 4 C-8.62340682 -0.37659318 -5.88808394 -0.39919213 0 0 Z " fill="#F9F1F3" transform="translate(414,191)"/>
<path d="M0 0 C0.33 1.65 0.66 3.3 1 5 C-2.81535994 7.69319525 -5.33521915 8.42407099 -10 8 C-11 7 -11 7 -11.0625 4.4375 C-11.041875 3.633125 -11.02125 2.82875 -11 2 C-6.89657963 -0.38570952 -4.61380251 -1.49270081 0 0 Z " fill="#F7E9ED" transform="translate(379,192)"/>
<path d="M0 0 C2.6875 0.4375 2.6875 0.4375 5.0625 3.1875 C6.6875 6.4375 6.6875 6.4375 6.4375 8.8125 C6.06625 9.616875 6.06625 9.616875 5.6875 10.4375 C4.0375 10.7675 2.3875 11.0975 0.6875 11.4375 C-3.231397 7.15120641 -3.231397 7.15120641 -3.625 3.6875 C-3.20157704 0.63885472 -3.02641394 0.5725648 0 0 Z " fill="#F8EEF1" transform="translate(304.3125,124.5625)"/>
<path d="M0 0 C0.70125 0.268125 1.4025 0.53625 2.125 0.8125 C2.4375 3.0625 2.4375 3.0625 2.125 5.8125 C-0.0625 8.1875 -0.0625 8.1875 -2.875 9.8125 C-5.6875 9.5625 -5.6875 9.5625 -7.875 8.8125 C-8.205 7.4925 -8.535 6.1725 -8.875 4.8125 C-3.58269231 -0.23365385 -3.58269231 -0.23365385 0 0 Z " fill="#F7E9ED" transform="translate(378.875,172.1875)"/>
<path d="M0 0 C2.375 1.5 2.375 1.5 4 3 C3.125 6.875 3.125 6.875 2 8 C-1.94836905 8.2632246 -4.60379269 8.08997373 -8 6 C-8 4.35 -8 2.7 -8 1 C-5.19084526 -0.40457737 -3.11189466 -0.24895157 0 0 Z " fill="#F6E7EC" transform="translate(291,170)"/>
<path d="M0 0 C1 1 1 1 1.1875 3.4375 C1 6 1 6 -1 8 C-4.5 8.25 -4.5 8.25 -8 8 C-8.66 7.34 -9.32 6.68 -10 6 C-9.75 3.4375 -9.75 3.4375 -9 1 C-6.01787087 -0.49106457 -3.28390342 -0.11941467 0 0 Z " fill="#FAF5F7" transform="translate(286,204)"/>
<path d="M0 0 C0.33 1.32 0.66 2.64 1 4 C-2.78756477 7.61139896 -2.78756477 7.61139896 -5 9 C-7.875 8.8125 -7.875 8.8125 -10 8 C-10.6875 6.1875 -10.6875 6.1875 -11 4 C-8.08697365 0.06741443 -4.62551235 -0.12501385 0 0 Z " fill="#F7E9ED" transform="translate(397,184)"/>
<path d="M0 0 C2.59094622 0.35012787 4.5774211 0.73770965 6.8125 2.125 C8.63883169 5.00868162 8.18806842 7.67745793 8 11 C5.75 11.375 5.75 11.375 3 11 C0.625 8.3125 0.625 8.3125 -1 5 C-0.75 2.125 -0.75 2.125 0 0 Z " fill="#F8EEF1" transform="translate(320,136)"/>
<path d="M0 0 C1.65 0.33 3.3 0.66 5 1 C5.41176754 4.60296594 5.1535853 5.78402067 3 8.8125 C2.34 9.534375 1.68 10.25625 1 11 C-0.65 10.67 -2.3 10.34 -4 10 C-3.5205537 5.78087253 -2.83374881 3.20336822 0 0 Z " fill="#FAEEF2" transform="translate(309,244)"/>
<path d="M0 0 C6.6 0.6 6.6 0.6 9 3 C9.125 5.625 9.125 5.625 9 8 C5.79161737 9.00834883 4.35919409 9.14367764 1.1875 7.875 C-1 6 -1 6 -1.375 3.375 C-1 1 -1 1 0 0 Z " fill="#F8EFF2" transform="translate(321,166)"/>
<path d="M0 0 C3.3 0 6.6 0 10 0 C10.33 1.32 10.66 2.64 11 4 C7.53498602 6.37600959 5.23711541 7.57258316 1 7 C0.34 6.34 -0.32 5.68 -1 5 C-0.625 2.375 -0.625 2.375 0 0 Z " fill="#F7EBEF" transform="translate(384,202)"/>
<path d="M0 0 C0.556875 0.268125 1.11375 0.53625 1.6875 0.8125 C1.2080537 5.03162747 0.52124881 7.60913178 -2.3125 10.8125 C-3.9625 10.4825 -5.6125 10.1525 -7.3125 9.8125 C-7.625 7.625 -7.625 7.625 -7.3125 4.8125 C-3.33459945 -0.27037293 -3.33459945 -0.27037293 0 0 Z " fill="#F7EAEE" transform="translate(328.3125,216.1875)"/>
<path d="M0 0 C4.55555556 0.55555556 4.55555556 0.55555556 6 2 C6.04092937 4.33297433 6.04241723 6.66705225 6 9 C4.02 9.99 4.02 9.99 2 11 C-1.89847716 7.7106599 -1.89847716 7.7106599 -2.375 4.375 C-2 2 -2 2 0 0 Z " fill="#F6E7EB" transform="translate(320,118)"/>
<path d="M0 0 C0.8353125 0.37125 0.8353125 0.37125 1.6875 0.75 C2.0625 3 2.0625 3 1.6875 5.75 C-1.4444376 8.32514869 -3.20660579 9.75 -7.3125 9.75 C-7.625 7 -7.625 7 -7.3125 3.75 C-3.50153592 -0.37854442 -3.50153592 -0.37854442 0 0 Z " fill="#F9F0F3" transform="translate(295.3125,238.25)"/>
<path d="M0 0 C0.8353125 0.37125 0.8353125 0.37125 1.6875 0.75 C1.6875 4.75 1.6875 4.75 -0.5625 7.5625 C-3.3125 9.75 -3.3125 9.75 -5.625 9.5625 C-6.181875 9.294375 -6.73875 9.02625 -7.3125 8.75 C-7.625 6.5 -7.625 6.5 -7.3125 3.75 C-3.41056452 -0.36870968 -3.41056452 -0.36870968 0 0 Z " fill="#F8EEF1" transform="translate(311.3125,228.25)"/>
<path d="M0 0 C1.65 0.33 3.3 0.66 5 1 C4.40268456 6.37583893 4.40268456 6.37583893 2.75 8.9375 C1 10 1 10 -1.6875 9.6875 C-2.450625 9.460625 -3.21375 9.23375 -4 9 C-3.46930939 5.17902761 -2.50298434 2.93828597 0 0 Z " fill="#F7ECEF" transform="translate(373,137)"/>
<path d="M0 0 C3.5625 0.1875 3.5625 0.1875 5.5625 2.1875 C5.1875 4.3125 5.1875 4.3125 4.5625 6.1875 C-2.0625 7.4375 -2.0625 7.4375 -5.4375 5.1875 C-4.31932898 0.23559976 -4.31932898 0.23559976 0 0 Z " fill="#F7E9ED" transform="translate(264.4375,211.8125)"/>
<path d="M0 0 C0.9075 0.226875 1.815 0.45375 2.75 0.6875 C2.4375 3.0625 2.4375 3.0625 1.75 5.6875 C-1.47791555 7.8394437 -2.53400809 7.88836443 -6.25 7.6875 C-6.58 6.0375 -6.91 4.3875 -7.25 2.6875 C-4.61280971 0.1517401 -3.74095095 -0.35970682 0 0 Z " fill="#F8EDF0" transform="translate(361.25,182.3125)"/>
<path d="M0 0 C-0.25 2.375 -0.25 2.375 -1 5 C-3.90442032 7.17831524 -6.45124947 7.19715281 -10 7 C-10.6875 5.1875 -10.6875 5.1875 -11 3 C-8.69211729 -1.30804773 -4.25159903 -0.20909503 0 0 Z " fill="#F6E5EA" transform="translate(415,177)"/>
<path d="M0 0 C1.0828125 0.37125 1.0828125 0.37125 2.1875 0.75 C1.85503345 3.82531556 1.55645244 5.36832506 -0.625 7.625 C-2.8125 8.75 -2.8125 8.75 -5.0625 8.4375 C-5.64 8.210625 -6.2175 7.98375 -6.8125 7.75 C-7.1425 6.43 -7.4725 5.11 -7.8125 3.75 C-3.50480769 -0.31153846 -3.50480769 -0.31153846 0 0 Z " fill="#F7EAEE" transform="translate(397.8125,168.25)"/>
<path d="M0 0 C-0.60220994 6.38342541 -0.60220994 6.38342541 -2.25 8.9375 C-4.58371852 10.35440053 -6.32136078 10.21718696 -9 10 C-8.69121904 6.39755548 -8.00552268 5.00654002 -5.625 2.1875 C-3 0 -3 0 0 0 Z " fill="#F7EBEF" transform="translate(394,138)"/>
<path d="M0 0 C2.33944736 0.28730055 4.6739143 0.61936779 7 1 C7.38218767 2.65614657 7.71395102 4.32457024 8 6 C7 7 7 7 3.5625 7.1875 C0 7 0 7 -2 5 C-1.46428571 1.46428571 -1.46428571 1.46428571 0 0 Z " fill="#F8F0F2" transform="translate(301,181)"/>
<path d="M0 0 C0.75 1.75 0.75 1.75 1 4 C-0.5625 6.25 -0.5625 6.25 -3 8 C-6.25 8.25 -6.25 8.25 -9 8 C-8.64005447 5.3364031 -8.28838998 3.41816548 -6.75 1.1875 C-4.41988723 -0.39364795 -2.75498245 -0.22337696 0 0 Z " fill="#F8EEF1" transform="translate(378,155)"/>
<path d="M0 0 C2.875 0.3125 2.875 0.3125 6 1 C8.29013653 4.4352048 8.17842973 5.985331 8 10 C5.6875 9.8125 5.6875 9.8125 3 9 C0.39811744 5.68035674 0 4.30683959 0 0 Z " fill="#F8E8ED" transform="translate(348,215)"/>
<path d="M0 0 C6.0546875 -0.1953125 6.0546875 -0.1953125 8 0 C8.66 0.66 9.32 1.32 10 2 C9.625 4.625 9.625 4.625 9 7 C5.26512223 6.5020163 3.18762365 6.12508244 0 4 C0 2.68 0 1.36 0 0 Z " fill="#F7EAEE" transform="translate(316,154)"/>
<path d="M0 0 C0.66 0.33 1.32 0.66 2 1 C-0.78358481 3.84137242 -3.57815727 6.67168155 -6.375 9.5 C-7.1690625 10.31082031 -7.963125 11.12164062 -8.78125 11.95703125 C-9.92207031 13.10751953 -9.92207031 13.10751953 -11.0859375 14.28125 C-11.7876709 14.99345703 -12.4894043 15.70566406 -13.21240234 16.43945312 C-15 18 -15 18 -17 18 C-13.28582432 10.07066681 -6.94856219 5.08017102 0 0 Z " fill="#465077" transform="translate(316,320)"/>
<path d="M0 0 C0.36923077 6.4 0.36923077 6.4 -1.5 9.4375 C-1.995 9.953125 -2.49 10.46875 -3 11 C-4.32 10.34 -5.64 9.68 -7 9 C-6.39285714 3.53571429 -6.39285714 3.53571429 -4.625 1.125 C-3 0 -3 0 0 0 Z " fill="#F8F0F2" transform="translate(361,128)"/>
<path d="M0 0 C2.125 0.375 2.125 0.375 4 1 C4.36253776 6.43806647 4.36253776 6.43806647 2.75 8.9375 C1 10 1 10 -1.1875 9.6875 C-1.785625 9.460625 -2.38375 9.23375 -3 9 C-2.25 2.25 -2.25 2.25 0 0 Z " fill="#F8EDF0" transform="translate(324,234)"/>
<path d="M0 0 C3.07531556 0.33246655 4.61832506 0.63104756 6.875 2.8125 C8 5 8 5 7.6875 7.25 C7.460625 7.8275 7.23375 8.405 7 9 C3.2273236 8.46104623 1.31787009 7.00464642 -1 4 C-0.75 1.75 -0.75 1.75 0 0 Z " fill="#F8E8ED" transform="translate(365,224)"/>
<path d="M0 0 C-0.38905618 2.72339328 -1.06737567 4.08903214 -2.75 6.3125 C-5 8 -5 8 -7.75 7.75 C-8.4925 7.5025 -9.235 7.255 -10 7 C-9.63206382 4.33246269 -9.18001672 3.18001672 -7.25 1.25 C-4.62056017 -0.21079991 -2.9625559 -0.24687966 0 0 Z " fill="#F5E1E7" transform="translate(363,167)"/>
<path d="M0 0 C-0.6 5.4 -0.6 5.4 -2.25 7.875 C-4.58213386 9.37422891 -6.28371825 9.22023906 -9 9 C-8.70460812 5.45529741 -8.22373481 4.21784705 -5.625 1.6875 C-3 0 -3 0 0 0 Z " fill="#F7EAEE" transform="translate(394,156)"/>
<path d="M0 0 C0.99 0 1.98 0 3 0 C3.36426713 6.43538595 3.36426713 6.43538595 1.75 8.9375 C0 10 0 10 -4 10 C-4.39801392 6.5173782 -4.12373826 5.19200764 -2.1875 2.1875 C-1.465625 1.465625 -0.74375 0.74375 0 0 Z " fill="#F8EFF2" transform="translate(358,148)"/>
<path d="M0 0 C3.7758544 0.52442422 6.22372155 1.32654667 9 4 C9 4.99 9 5.98 9 7 C2.375 7.25 2.375 7.25 -1 5 C-0.67 3.35 -0.34 1.7 0 0 Z " fill="#F7EAEE" transform="translate(268,159)"/>
<path d="M0 0 C0.78375 0.04125 1.5675 0.0825 2.375 0.125 C2.60232116 2.92862763 2.71581872 4.58686517 1.1875 7 C-0.625 8.125 -0.625 8.125 -3.3125 7.8125 C-4.075625 7.585625 -4.83875 7.35875 -5.625 7.125 C-4.53409091 0.21590909 -4.53409091 0.21590909 0 0 Z " fill="#F6E8ED" transform="translate(295.625,253.875)"/>
<path d="M0 0 C4.70588235 0.70588235 4.70588235 0.70588235 6 2 C6.04063832 3.66617115 6.042721 5.33388095 6 7 C5.01 7.33 4.02 7.66 3 8 C0.3125 6.5625 0.3125 6.5625 -2 5 C-1.125 1.125 -1.125 1.125 0 0 Z " fill="#F5E4EA" transform="translate(285,136)"/>
<path d="M0 0 C0.66 0.33 1.32 0.66 2 1 C-2.95 5.95 -7.9 10.9 -13 16 C-13.33 15.34 -13.66 14.68 -14 14 C-9.67106815 8.81580806 -5.23435005 4.27293882 0 0 Z " fill="#23743C" transform="translate(223,345)"/>
<path d="M0 0 C-0.875 3.875 -0.875 3.875 -2 5 C-3.66617115 5.04063832 -5.33388095 5.042721 -7 5 C-6.625 2.5625 -6.625 2.5625 -6 0 C-3.50907189 -1.24546405 -2.58919267 -0.7767578 0 0 Z " fill="#F8EEF1" transform="translate(412,163)"/>
<path d="M0 0 C0.99 0.33 1.98 0.66 3 1 C2.75 3.375 2.75 3.375 2 6 C-0.0625 7.3125 -0.0625 7.3125 -2 8 C-2.6875 5.6875 -2.6875 5.6875 -3 3 C-1.5625 1.1875 -1.5625 1.1875 0 0 Z " fill="#F4DFE5" transform="translate(372,123)"/>
<path d="M0 0 C0.66 0.33 1.32 0.66 2 1 C-1.96 4.96 -5.92 8.92 -10 13 C-10.33 12.34 -10.66 11.68 -11 11 C-9.92173635 9.72486237 -8.83714481 8.45507431 -7.75 7.1875 C-7.14671875 6.47980469 -6.5434375 5.77210937 -5.921875 5.04296875 C-4.07629602 3.08110329 -2.20054668 1.54330375 0 0 Z " fill="#287740" transform="translate(241,39)"/>
<path d="M0 0 C0.99 0.33 1.98 0.66 3 1 C2.67 2.32 2.34 3.64 2 5 C0.35 5.33 -1.3 5.66 -3 6 C-3 4.68 -3 3.36 -3 2 C-2.01 1.34 -1.02 0.68 0 0 Z " fill="#F3DBE3" transform="translate(403,149)"/>
<path d="M0 0 C-1.59092052 4.13639336 -4.60474918 7.23213248 -8 10 C-8.66 10 -9.32 10 -10 10 C-8.50006099 6.10015857 -4.53875449 0 0 0 Z " fill="#3E4571" transform="translate(128,350)"/>
<path d="M0 0 C2.27156921 0.06001504 4.54239274 0.14879968 6.8125 0.25 C8.07707031 0.29640625 9.34164062 0.3428125 10.64453125 0.390625 C14 1 14 1 15.94921875 3.046875 C16.29597656 3.69140625 16.64273438 4.3359375 17 5 C11.24237834 3.91103333 5.60752181 2.70663707 0 1 C0 0.67 0 0.34 0 0 Z " fill="#347949" transform="translate(200,123)"/>
<path d="M0 0 C0.99 0.33 1.98 0.66 3 1 C2.67 2.65 2.34 4.3 2 6 C0.68 6.33 -0.64 6.66 -2 7 C-1.125 1.125 -1.125 1.125 0 0 Z " fill="#F4E0E6" transform="translate(353,117)"/>
<path d="M0 0 C0 3 0 3 -1.75 5.04296875 C-2.4925 5.75066406 -3.235 6.45835937 -4 7.1875 C-4.7425 7.90292969 -5.485 8.61835938 -6.25 9.35546875 C-7.11625 10.16951172 -7.11625 10.16951172 -8 11 C-8.66 10.67 -9.32 10.34 -10 10 C-6.66666667 6.66666667 -3.33333333 3.33333333 0 0 Z " fill="#2C7743" transform="translate(178,163)"/>
</svg>
